<?xml version="1.0" encoding="UTF-8"?>
<svg version="1.1" xmlns="http://www.w3.org/2000/svg" width="200" height="200">
<path d="M0 0 C18.94117633 15.97740763 32.74939967 38.83762192 35.4375 63.75 C37.58547278 94.94025688 31.236838 120.91505546 10.87109375 145.05859375 C-5.70446543 163.39015117 -28.90857263 176.25876359 -53.80273438 177.97314453 C-85.17396919 179.3716107 -110.9524728 172.09839905 -134.5625 150.75 C-153.68923272 132.14098335 -164.3546023 108.02583084 -165.03320312 81.41601562 C-165.27144065 51.60455952 -156.06340132 26.76560955 -135.03515625 5.15234375 C-97.49103665 -30.51732641 -40.30425919 -31.63546601 0 0 Z " fill="#000000" transform="translate(164.5625,22.25)"/>
<path d="M0 0 C2.52157177 0.78040843 4.30345939 1.58942755 6.5625 2.875 C7.22507813 3.22925049 7.88765625 3.58350098 8.5703125 3.94848633 C10.12490527 4.78250342 11.67412033 5.62658521 13.21923828 6.47802734 C16.46164748 8.25266992 19.72761966 9.98110434 22.99609375 11.70703125 C46.06718648 23.924862 46.06718648 23.924862 52 28 C52 28.66 52 29.32 52 30 C51.35788574 30.3309668 50.71577148 30.66193359 50.05419922 31.00292969 C37.28497606 37.59276498 24.56112528 44.24363861 11.99560547 51.21582031 C11.14627441 51.6847168 10.29694336 52.15361328 9.421875 52.63671875 C8.68549805 53.04623779 7.94912109 53.45575684 7.19042969 53.87768555 C6.46758789 54.24804932 5.74474609 54.61841309 5 55 C3.78606567 55.63699829 3.78606567 55.63699829 2.54760742 56.28686523 C-0.87448917 57.24478992 -2.0948968 56.45150619 -5.18359375 54.7734375 C-6.18366455 54.24161865 -7.18373535 53.7097998 -8.21411133 53.16186523 C-9.27782959 52.57219971 -10.34154785 51.98253418 -11.4375 51.375 C-12.53537842 50.78340088 -13.63325684 50.19180176 -14.7644043 49.58227539 C-17.04798531 48.34889566 -19.32732661 47.10763653 -21.60253906 45.85888672 C-24.85481836 44.07943468 -28.12262278 42.33331873 -31.3984375 40.59765625 C-33.37029484 39.54521304 -35.34167173 38.49186901 -37.3125 37.4375 C-38.23023193 36.95007324 -39.14796387 36.46264648 -40.09350586 35.96044922 C-40.94565674 35.49783691 -41.79780762 35.03522461 -42.67578125 34.55859375 C-43.41739502 34.15954834 -44.15900879 33.76050293 -44.9230957 33.34936523 C-47.27780786 31.81950817 -49.08123771 30.04117309 -51 28 C-40.93466043 22.15538556 -30.73547945 16.61006147 -20.4375 11.1875 C-18.29991896 10.06053496 -16.16272242 8.93285913 -14.02638245 7.80354309 C-12.71377913 7.10978907 -11.40046172 6.41738372 -10.08628845 5.72660828 C-7.39975023 4.30769837 -4.7977668 2.86824854 -2.25048828 1.20874023 C-1.13649658 0.61041382 -1.13649658 0.61041382 0 0 Z " fill="#0F8315" transform="translate(100,71)"/>
<path d="M0 0 C3.48490912 3.31779343 6.2782224 6.62373009 8.9140625 10.64453125 C9.27790039 11.19510193 9.64173828 11.74567261 10.01660156 12.31292725 C11.22462315 14.14273582 12.42470077 15.97761851 13.625 17.8125 C15.39279481 20.49680144 17.16499248 23.1781838 18.9375 25.859375 C19.4091861 26.57392349 19.88087219 27.28847198 20.36685181 28.02467346 C24.28401927 33.94748912 28.25929649 39.82966708 32.25 45.703125 C32.86201263 46.60483932 33.47402527 47.50655365 34.10458374 48.43559265 C36.55010382 52.03815706 38.99589752 55.64049594 41.45001221 59.23721313 C43.17139694 61.76078373 44.88696503 64.2882212 46.6015625 66.81640625 C47.118396 67.5704071 47.63522949 68.32440796 48.16772461 69.10125732 C50.55739541 72.63475829 52.63955099 75.91714915 54 80 C43.02400293 74.5781773 32.1687889 68.96272297 21.375 63.1875 C19.26205061 62.05883327 17.14877759 60.93077933 15.0350647 59.80354309 C13.73897463 59.11216201 12.4433449 58.41991694 11.14828491 57.72660828 C9.43531822 56.81185657 7.71774957 55.90573836 6 55 C5.00709961 54.36537842 4.01419922 53.73075684 2.99121094 53.0769043 C-0.03788211 51.64453891 -0.03788211 51.64453891 -3.30126953 53.04541016 C-4.50854654 53.68523997 -5.70192031 54.35175355 -6.8828125 55.0390625 C-7.53127136 55.39133408 -8.17973022 55.74360565 -8.84783936 56.10655212 C-10.95330787 57.25724327 -13.03840082 58.4404939 -15.125 59.625 C-16.56403478 60.41882302 -18.00430939 61.21040254 -19.44580078 61.99975586 C-22.99567456 63.95009156 -26.53055953 65.9258146 -30.06079102 67.91143799 C-33.79341993 70.0067243 -37.54294236 72.07140919 -41.29248047 74.13623047 C-42.97773429 75.06695961 -44.65925524 76.00448951 -46.33642578 76.94970703 C-51.78569081 80 -51.78569081 80 -54 80 C-52.39686421 76.54878359 -50.38872668 73.50446726 -48.24609375 70.36328125 C-47.8734993 69.81553543 -47.50090485 69.26778961 -47.11701965 68.70344543 C-45.89280565 66.90488973 -44.66516174 65.10870369 -43.4375 63.3125 C-42.57821431 62.05143045 -41.719168 60.79019776 -40.86035156 59.52880859 C-39.0986989 56.94204693 -37.33576345 54.35616704 -35.57177734 51.77099609 C-32.49058198 47.25458549 -29.41823364 42.73219237 -26.34594727 38.2097168 C-23.58874693 34.15179878 -20.82860629 30.09588513 -18.06835938 26.04003906 C-15.9247375 22.88938047 -13.78268347 19.73765916 -11.640625 16.5859375 C-10.26048728 14.55724363 -8.88028174 12.52859589 -7.5 10.5 C-6.85836914 9.55527832 -6.21673828 8.61055664 -5.55566406 7.63720703 C-4.6773291 6.3472583 -4.6773291 6.3472583 -3.78125 5.03125 C-3.26626953 4.27392578 -2.75128906 3.51660156 -2.22070312 2.73632812 C-1 1 -1 1 0 0 Z " fill="#0F8315" transform="translate(100,12)"/>
<path d="M0 0 C6.05371039 2.3180325 11.69254511 5.38939519 17.4375 8.375 C18.64980725 8.99366651 19.86245796 9.61166039 21.07543945 10.22900391 C26.92154236 13.22333157 32.59144036 16.29619394 38.109375 19.875 C47.32023624 26.1747057 47.32023624 26.1747057 57.93359375 27.48828125 C61.43825309 26.02381949 64.42630313 23.87059156 67.50195312 21.66699219 C72.2683853 18.48626516 77.42442714 15.95207787 82.4977417 13.29971313 C85.49925939 11.72127415 88.47814436 10.10181716 91.4609375 8.48828125 C96.92351732 5.55296151 102.43082007 2.7272906 108 0 C106.32943103 5.00551504 103.46001631 9.08074868 100.5390625 13.421875 C99.99325531 14.24012756 99.44744812 15.05838013 98.88510132 15.90142822 C97.72555277 17.63773198 96.56376297 19.37254075 95.39990234 21.10595703 C93.66116513 23.6961254 91.92957053 26.29094325 90.19921875 28.88671875 C84.26789482 37.76409649 78.23787357 46.5582099 72.04948425 55.25834656 C67.83079587 61.20054281 63.83075533 67.26770429 59.94335938 73.43164062 C59.46576172 74.16705078 58.98816406 74.90246094 58.49609375 75.66015625 C58.08544678 76.30605713 57.6747998 76.95195801 57.25170898 77.61743164 C56.83864502 78.0736792 56.42558105 78.52992676 56 79 C55.01 79 54.02 79 53 79 C51.73583984 77.65258789 51.73583984 77.65258789 50.4609375 75.72265625 C49.97206055 74.99481934 49.48318359 74.26698242 48.97949219 73.51708984 C48.45000977 72.7070752 47.92052734 71.89706055 47.375 71.0625 C46.20076282 69.3058278 45.02627093 67.54932585 43.8515625 65.79296875 C43.22668945 64.85114746 42.60181641 63.90932617 41.95800781 62.93896484 C38.59482574 57.89083695 35.16757054 52.88638866 31.75 47.875 C27.66507164 41.87062506 23.58342662 35.86404707 19.51278687 29.84997559 C18.35778178 28.14386314 17.20196653 26.43830245 16.04589844 24.73291016 C14.59830663 22.59696851 13.15224644 20.45998771 11.70800781 18.32177734 C8.28728837 13.27751 4.81528119 8.32805289 1.0378418 3.54321289 C0 2 0 2 0 0 Z " fill="#0F8315" transform="translate(46,107)"/>
<path d="M0 0 C6.05316997 2.31782556 11.69483192 5.38584281 17.4375 8.375 C18.51837891 8.93316406 19.59925781 9.49132812 20.71289062 10.06640625 C31.90618414 15.87793858 42.92031539 21.95653567 54 28 C54 44.83 54 61.66 54 79 C50.71685815 75.71685815 48.29027653 72.65133844 45.8125 68.8125 C44.92576348 67.46139581 44.03763655 66.11120356 43.1484375 64.76171875 C42.65311523 64.00938965 42.15779297 63.25706055 41.64746094 62.48193359 C38.45225784 57.66829479 35.19092023 52.89939418 31.9375 48.125 C30.47131155 45.97268528 29.00516647 43.82034102 27.5390625 41.66796875 C27.16871887 41.12442749 26.79837524 40.58088623 26.41680908 40.02087402 C23.71642901 36.05623503 21.02479405 32.08574187 18.3359375 28.11328125 C17.57045904 26.98351705 16.80491617 25.85379648 16.03930664 24.72412109 C14.59427741 22.59135237 13.15066976 20.45761951 11.70874023 18.32275391 C8.28771118 13.27820686 4.81553352 8.32837251 1.0378418 3.54321289 C0 2 0 2 0 0 Z " fill="#3EB73E" transform="translate(46,107)"/>
<path d="M0 0 C0.33 0 0.66 0 1 0 C1 16.83 1 33.66 1 51 C-6.30125 54.8671875 -6.30125 54.8671875 -13.75 58.8125 C-24.33602883 64.42289052 -34.89952454 70.06264113 -45.33496094 75.95043945 C-50.78973263 79 -50.78973263 79 -53 79 C-51.39686421 75.54878359 -49.38872668 72.50446726 -47.24609375 69.36328125 C-46.8734993 68.81553543 -46.50090485 68.26778961 -46.11701965 67.70344543 C-44.89280565 65.90488973 -43.66516174 64.10870369 -42.4375 62.3125 C-41.57821431 61.05143045 -40.719168 59.79019776 -39.86035156 58.52880859 C-38.0986989 55.94204693 -36.33576345 53.35616704 -34.57177734 50.77099609 C-31.49054398 46.25452978 -28.41810885 41.73211463 -25.34594727 37.20947266 C-23.26886372 34.15276054 -21.18930936 31.09774154 -19.109375 28.04296875 C-16.27860541 23.88417543 -13.4570426 19.71930623 -10.640625 15.55078125 C-9.94420898 14.52259277 -9.24779297 13.4944043 -8.53027344 12.43505859 C-7.20269302 10.47497773 -5.87771253 8.51313275 -4.55566406 6.54931641 C-3.6773291 5.25453369 -3.6773291 5.25453369 -2.78125 3.93359375 C-2.26626953 3.17103271 -1.75128906 2.40847168 -1.22070312 1.62280273 C-0.81787109 1.08727783 -0.41503906 0.55175293 0 0 Z " fill="#3EB73E" transform="translate(99,13)"/>
<path d="M0 0 C0 10.23 0 20.46 0 31 C-11.10137019 31.18349372 -21.89314002 30.81880637 -32.94165039 29.71142578 C-38.66377573 29.14780322 -44.24926776 28.90582219 -50 29 C-50 28.01 -50 27.02 -50 26 C-49.2565332 25.60321045 -48.51306641 25.2064209 -47.74707031 24.79760742 C-44.88842154 23.27115945 -42.03025247 21.74381875 -39.17254639 20.21560669 C-37.89403189 19.53190443 -36.61542718 18.84837086 -35.33673096 18.16500854 C-26.13322444 13.24468249 -16.9625517 8.27136603 -7.86816406 3.15112305 C-7.1150293 2.7312915 -6.36189453 2.31145996 -5.5859375 1.87890625 C-4.9367334 1.5135376 -4.2875293 1.14816895 -3.61865234 0.77172852 C-2 0 -2 0 0 0 Z " fill="#3DB83D" transform="translate(100,72)"/>
<path d="M0 0 C1.00546875 0.00902344 2.0109375 0.01804687 3.046875 0.02734375 C4.13742188 0.04474609 4.13742188 0.04474609 5.25 0.0625 C1.74640401 2.90577302 -2.107579 4.95979569 -6.0859375 7.046875 C-6.80173981 7.42555725 -7.51754211 7.8042395 -8.2550354 8.19439697 C-9.77219042 8.99613736 -11.29022773 9.79621007 -12.80908203 10.59472656 C-15.0843761 11.79113883 -17.35686812 12.99273078 -19.62890625 14.1953125 C-28.61045144 18.93947485 -37.64189194 23.56579264 -46.75 28.0625 C-46.77886984 24.08334841 -46.79675406 20.10422347 -46.8125 16.125 C-46.82087891 14.98869141 -46.82925781 13.85238281 -46.83789062 12.68164062 C-46.84111328 11.60205078 -46.84433594 10.52246094 -46.84765625 9.41015625 C-46.85289307 8.40992432 -46.85812988 7.40969238 -46.86352539 6.37915039 C-46.75 4.0625 -46.75 4.0625 -45.75 3.0625 C-43.89455333 2.84521073 -42.03169217 2.69068732 -40.16796875 2.5625 C-39.00716797 2.48 -37.84636719 2.3975 -36.65039062 2.3125 C-34.81250977 2.18875 -34.81250977 2.18875 -32.9375 2.0625 C-30.55595169 1.89637565 -28.1744409 1.72971253 -25.79296875 1.5625 C-24.61686035 1.4812085 -23.44075195 1.39991699 -22.22900391 1.31616211 C-18.91126579 1.07425826 -15.59889576 0.79496055 -12.28515625 0.50390625 C-8.17775041 0.15464518 -4.12541974 -0.04911214 0 0 Z " fill="#054D05" transform="translate(146.75,99.9375)"/>
<path d="M0 0 C16.42658217 0.55456447 32.66957283 2.20184355 49 4 C49 11.59 49 19.18 49 27 C44.25295421 25.4176514 40.15478061 23.64863244 35.80078125 21.296875 C34.78723824 20.75646576 34.78723824 20.75646576 33.7532196 20.20513916 C31.6039563 19.05777143 29.45822916 17.90396091 27.3125 16.75 C25.89149876 15.99046859 24.47027654 15.23135046 23.04882812 14.47265625 C15.34389251 10.35540769 7.66019196 6.19999335 0 2 C0 1.34 0 0.68 0 0 Z " fill="#186718" transform="translate(51,100)"/>
</svg>
