<?xml version="1.0" encoding="UTF-8"?>
<svg version="1.1" xmlns="http://www.w3.org/2000/svg" width="200" height="200">
<path d="M0 0 C1.97057373 0.01244751 1.97057373 0.01244751 3.98095703 0.02514648 C30.59980382 0.48715365 53.72465336 11.42026424 72.78515625 29.96484375 C93.84702972 52.13352355 101.2778848 78.2026027 100.56640625 108.2890625 C99.48511536 134.27394013 86.69618501 157.79975154 68 175.5625 C43.98105135 196.61243972 16.57357223 202.49420132 -14.8125 200.4375 C-38.99713355 197.8288493 -61.65074161 183.41080196 -77.40234375 165.4375 C-96.90317515 141.16417988 -102.83576073 113.4659566 -99.51513672 82.68066406 C-95.68723331 57.44638291 -79.77598575 33.90229312 -59.61181641 18.71191406 C-41.7921468 6.09065553 -21.82237813 -0.17910314 0 0 Z " fill="#33FD99" transform="translate(99.8125,-0.4375)"/>
<path d="M0 0 C1.97057373 0.01244751 1.97057373 0.01244751 3.98095703 0.02514648 C30.59980382 0.48715365 53.72465336 11.42026424 72.78515625 29.96484375 C93.84702972 52.13352355 101.2778848 78.2026027 100.56640625 108.2890625 C99.48511536 134.27394013 86.69618501 157.79975154 68 175.5625 C43.98105135 196.61243972 16.57357223 202.49420132 -14.8125 200.4375 C-38.99713355 197.8288493 -61.65074161 183.41080196 -77.40234375 165.4375 C-96.90317515 141.16417988 -102.83576073 113.4659566 -99.51513672 82.68066406 C-95.68723331 57.44638291 -79.77598575 33.90229312 -59.61181641 18.71191406 C-41.7921468 6.09065553 -21.82237813 -0.17910314 0 0 Z M-64.0546875 42.40625 C-80.9103885 61.88394894 -87.05067908 85.13310458 -85.8125 110.4375 C-83.93405884 132.47590415 -71.33908233 152.24308108 -55.234375 166.76171875 C-36.77073776 182.00292874 -15.49528266 188.06315858 8.1875 186.4375 C26.99161828 184.54077223 44.04817098 176.87551138 58.1875 164.4375 C58.94933594 163.77105469 59.71117187 163.10460937 60.49609375 162.41796875 C69.90141111 153.63206571 76.48722983 142.34608964 81.1875 130.4375 C81.48269531 129.70402344 81.77789062 128.97054687 82.08203125 128.21484375 C89.19459496 108.90931368 88.23754628 85.93391371 80.19628906 67.11816406 C76.00344254 58.05868943 70.95017973 49.81855706 64.1875 42.4375 C63.52492187 41.68339844 62.86234375 40.92929687 62.1796875 40.15234375 C51.38563166 28.54176339 36.37482903 20.62710801 21.1875 16.4375 C20.43984375 16.23125 19.6921875 16.025 18.921875 15.8125 C-11.74552435 8.86893788 -42.74063592 19.93285671 -64.0546875 42.40625 Z " fill="#33FD99" transform="translate(99.8125,-0.4375)"/>
<path d="M0 0 C4.47122757 3.32742517 8.54775645 6.96953195 12.51953125 10.875 C13.21949219 11.56207031 13.91945312 12.24914062 14.640625 12.95703125 C29.46186662 28.52944691 37.04880294 50.04692147 36.87304688 71.28344727 C36.30206086 92.86467951 28.80828483 112.63177735 14.51953125 128.875 C13.51986328 130.01775391 13.51986328 130.01775391 12.5 131.18359375 C3.71409696 140.58891111 -7.57187911 147.17472983 -19.48046875 151.875 C-20.58068359 152.31779297 -20.58068359 152.31779297 -21.703125 152.76953125 C-41.81058487 160.17754278 -64.84377474 158.53037297 -84.359375 150.30078125 C-107.26102295 139.51614133 -122.26695218 121.64250938 -131.44140625 98.4453125 C-132.22285639 96.27117893 -132.88107072 94.10587215 -133.48046875 91.875 C-133.68542969 91.12992187 -133.89039063 90.38484375 -134.1015625 89.6171875 C-139.45960463 66.04180214 -133.74066186 44.57579116 -121.9453125 24.2265625 C-109.8174388 4.97060705 -90.63781566 -8.28440291 -68.65234375 -13.46875 C-67.605625 -13.6853125 -66.55890625 -13.901875 -65.48046875 -14.125 C-64.71992187 -14.31578125 -63.959375 -14.5065625 -63.17578125 -14.703125 C-40.79495916 -18.2062102 -18.64540514 -12.52345053 0 0 Z M-108.26171875 25.12890625 C-121.1647421 41.09866931 -124.8253973 59.8648771 -123.48046875 79.875 C-120.76477583 99.94566799 -110.0580959 117.29778986 -94.69921875 130.21875 C-77.12995267 143.33383594 -56.9451238 146.96641795 -35.48046875 144.3125 C-16.38913549 140.62410636 1.29034074 128.65626792 12.2355957 112.76928711 C23.68172548 95.29507129 27.01379605 75.56297846 23.33203125 55.125 C19.05218937 36.30947397 8.30828934 19.79537342 -7.91796875 9.0625 C-42.93423729 -11.77120167 -81.34398731 -5.57945509 -108.26171875 25.12890625 Z " fill="#121412" transform="translate(149.48046875,29.125)"/>
<path d="M0 0 C2.97 0 5.94 0 9 0 C9 4.29 9 8.58 9 13 C10.485 13.061875 10.485 13.061875 12 13.125 C17.64297491 13.96057235 21.95364062 17.30680288 25.359375 21.7890625 C28.47157425 27.26923944 28.68946651 32.78933022 29 39 C25.04 39 21.08 39 17 39 C16.938125 37.63875 16.87625 36.2775 16.8125 34.875 C16.26485873 29.76905052 14.63833416 27.5495943 11 24 C7.31587001 22.15793501 3.03017014 22.6382367 -1 23 C-4.68623011 24.61272567 -5.75355 25.630325 -8 29 C-8.35445351 31.3421071 -8.35445351 31.3421071 -8.3125 33.875 C-8.32925781 34.71804687 -8.34601563 35.56109375 -8.36328125 36.4296875 C-7.90634989 39.66259968 -6.99023899 41.41183514 -5 44 C-2.50008852 45.71002916 -2.50008852 45.71002916 0.4375 47 C1.50226563 47.5053125 2.56703125 48.010625 3.6640625 48.53125 C6.85345062 49.93547709 10.06947431 51.22566245 13.3125 52.5 C19.56714261 55.06243866 24.10882318 57.89847001 27.66015625 63.72265625 C29.21732787 67.5315979 29.40002896 70.39525053 29.375 74.5 C29.38660156 76.40265625 29.38660156 76.40265625 29.3984375 78.34375 C28.69496455 84.79914885 25.85278043 88.82435173 21 93 C16.70881344 95.6120266 12.981815 96.5018185 8 97 C8 100.63 8 104.26 8 108 C5.03 108 2.06 108 -1 108 C-1 104.37 -1 100.74 -1 97 C-1.825 97.0825 -2.65 97.165 -3.5 97.25 C-9.75710811 96.80306371 -14.24719754 94.18153206 -18.375 89.5 C-23.15825722 83.62113638 -23.19646118 79.46552485 -23 72 C-19.37 72 -15.74 72 -12 72 C-11.773125 73.5675 -11.54625 75.135 -11.3125 76.75 C-10.57218844 80.5154696 -10.25440112 81.73923886 -7.5 84.5625 C-2.08582646 87.67564979 2.80816116 87.5981672 9 87 C12.77640926 85.54974397 14.75160547 83.37259179 17 80 C17.67496204 75.36944645 17.68057193 71.30442953 15.5 67.125 C11.39334834 63.63434609 6.99223508 61.67934453 1.94140625 59.95703125 C-6.73677406 56.96208799 -13.88476666 52.90839145 -19.24609375 45.2109375 C-21.26677617 39.2849984 -21.00311744 30.54510823 -19.3125 24.5703125 C-16.64501175 19.56877203 -11.37192547 14.84659938 -6 13 C-4.02 13 -2.04 13 0 13 C0 8.71 0 4.42 0 0 Z " fill="#121513" transform="translate(97,46)"/>
</svg>
