<?xml version="1.0" encoding="UTF-8"?>
<svg version="1.1" xmlns="http://www.w3.org/2000/svg" width="600" height="600">
<path d="M0 0 C1.01653656 -0.00570007 2.03307312 -0.01140015 3.08041382 -0.01727295 C5.22677592 -0.02666837 7.37315208 -0.03323504 9.51953125 -0.03710938 C12.71642207 -0.04670389 15.91263753 -0.07773392 19.109375 -0.109375 C38.30670149 -0.20911412 57.19117726 1.60135094 75.8984375 6.015625 C77.0227417 6.27496826 78.1470459 6.53431152 79.30541992 6.80151367 C139.72722942 21.02068497 199.05841601 55.35197407 237.1484375 105.203125 C238.16046978 106.48775857 239.17357573 107.7715467 240.1875 109.0546875 C276.51970159 155.36761241 301.08416654 214.60217338 301.3515625 274.0546875 C301.35726257 275.07122406 301.36296265 276.08776062 301.36883545 277.13510132 C301.37823087 279.28146342 301.38479754 281.42783958 301.38867188 283.57421875 C301.39826639 286.77110957 301.42929642 289.96732503 301.4609375 293.1640625 C301.56067662 312.36138899 299.75021156 331.24586476 295.3359375 349.953125 C295.07659424 351.0774292 294.81725098 352.2017334 294.55004883 353.36010742 C280.33087753 413.78191692 245.99958843 473.11310351 196.1484375 511.203125 C194.86380393 512.21515728 193.5800158 513.22826323 192.296875 514.2421875 C145.98395009 550.57438909 86.74938912 575.13885404 27.296875 575.40625 C26.28033844 575.41195007 25.26380188 575.41765015 24.21646118 575.42352295 C22.07009908 575.43291837 19.92372292 575.43948504 17.77734375 575.44335938 C14.58045293 575.45295389 11.38423747 575.48398392 8.1875 575.515625 C-11.00982649 575.61536412 -29.89430226 573.80489906 -48.6015625 569.390625 C-50.2880188 569.00161011 -50.2880188 569.00161011 -52.00854492 568.60473633 C-112.43035442 554.38556503 -171.76154101 520.05427593 -209.8515625 470.203125 C-210.86359478 468.91849143 -211.87670073 467.6347033 -212.890625 466.3515625 C-249.22282659 420.03863759 -273.78729154 360.80407662 -274.0546875 301.3515625 C-274.06038757 300.33502594 -274.06608765 299.31848938 -274.07196045 298.27114868 C-274.08135587 296.12478658 -274.08792254 293.97841042 -274.09179688 291.83203125 C-274.10139139 288.63514043 -274.13242142 285.43892497 -274.1640625 282.2421875 C-274.26380162 263.04486101 -272.45333656 244.16038524 -268.0390625 225.453125 C-267.77971924 224.3288208 -267.52037598 223.2045166 -267.25317383 222.04614258 C-253.03400253 161.62433308 -218.70271343 102.29314649 -168.8515625 64.203125 C-167.56692893 63.19109272 -166.2831408 62.17798677 -165 61.1640625 C-118.68707509 24.83186091 -59.45251412 0.26739596 0 0 Z " fill="#131313" transform="translate(286.8515625,12.796875)"/>
<path d="M0 0 C2.22584275 2.09281782 3.88271245 4.1907237 5.49609375 6.78125 C5.9657959 7.53059814 6.43549805 8.27994629 6.91943359 9.05200195 C7.42039551 9.85984131 7.92135742 10.66768066 8.4375 11.5 C9.52204656 13.23312852 10.60668444 14.9661999 11.69140625 16.69921875 C12.24328613 17.58399902 12.79516602 18.4687793 13.36376953 19.38037109 C15.85356545 23.36657076 18.36383052 27.3397432 20.875 31.3125 C21.36411865 32.08722656 21.8532373 32.86195312 22.35717773 33.66015625 C26.22417724 39.78233235 30.10997883 45.89243255 34 52 C40.84871863 62.7529006 47.65846334 73.53005331 54.45898438 84.31347656 C60.87947515 94.49282609 67.32275022 104.65724137 73.78857422 114.80786133 C78.02893327 121.46719757 82.24942824 128.13879931 86.4609375 134.81640625 C90.29202359 140.88736013 94.14321169 146.94534761 98 153 C102.8377163 160.59458082 107.65743071 168.20015083 112.4609375 175.81640625 C116.87421147 182.8099277 121.31536661 189.78555052 125.75830078 196.76025391 C131.53009053 205.8246862 137.26880464 214.90986231 143 224 C142.34 224.33 141.68 224.66 141 225 C138.75463867 224.21826172 138.75463867 224.21826172 135.91796875 222.9296875 C134.85666748 222.45249268 133.79536621 221.97529785 132.7019043 221.48364258 C131.54215088 220.95279053 130.38239746 220.42193848 129.1875 219.875 C127.96364737 219.32173524 126.73943797 218.76925907 125.51489258 218.2175293 C122.94957417 217.06048413 120.38618853 215.89930383 117.82421875 214.73486328 C113.11251204 212.59478495 108.38879974 210.48172267 103.66503906 208.3684082 C100.07248296 206.76103948 96.48139261 205.15042078 92.890625 203.5390625 C69.49840758 193.04439234 46.09145837 182.58309086 22.65991211 172.17651367 C21.94771011 171.85999344 21.23550812 171.54347321 20.50172424 171.21736145 C19.13683078 170.61186932 17.77116505 170.00811433 16.40464783 169.40629578 C13.64026323 168.18714042 10.89360635 166.94846701 8.17431641 165.63134766 C7.3910498 165.25413574 6.6077832 164.87692383 5.80078125 164.48828125 C5.16954346 164.17028564 4.53830566 163.85229004 3.88793945 163.5246582 C-0.97316951 162.17375646 -5.80885881 165.03602262 -10.21875 166.9296875 C-10.93185837 167.23136841 -11.64496674 167.53304932 -12.37968445 167.84387207 C-14.7549874 168.84991339 -17.1274314 169.86252901 -19.5 170.875 C-21.19421084 171.59374863 -22.88863298 172.31199934 -24.58325195 173.02978516 C-28.19268377 174.55929171 -31.80106484 176.09124039 -35.40869141 177.625 C-43.72608223 181.15985025 -52.05216519 184.67412257 -60.37805176 188.18890381 C-63.19847973 189.37963544 -66.01868071 190.57090354 -68.83886719 191.76220703 C-82.30000436 197.4468973 -95.7713712 203.1069146 -109.25 208.75 C-110.12957367 209.11841003 -111.00914734 209.48682007 -111.91537476 209.86639404 C-123.26068058 214.61739547 -134.62106102 219.33011578 -146 224 C-144.6093717 220.15876308 -142.82180057 217.00481948 -140.53515625 213.625 C-139.47397583 212.04682495 -139.47397583 212.04682495 -138.39135742 210.43676758 C-138.01304779 209.8785733 -137.63473816 209.32037903 -137.2449646 208.74526978 C-135.19241179 205.7157851 -133.15604816 202.6754273 -131.1171875 199.63671875 C-130.69287949 199.00521408 -130.26857147 198.37370941 -129.83140564 197.72306824 C-125.39871952 191.11975443 -121.03822869 184.46998629 -116.6875 177.8125 C-115.89563245 176.60169697 -115.10372125 175.39092248 -114.31176758 174.18017578 C-113.10401131 172.33358055 -111.89634915 170.48692412 -110.6889801 168.64007568 C-106.05104519 161.54621102 -101.40077809 154.46044854 -96.75 147.375 C-96.31682465 146.71496979 -95.88364929 146.05493958 -95.43734741 145.37490845 C-87.97725962 134.00800193 -80.51087249 122.64523905 -73.04309082 111.28338623 C-65.76124937 100.2043535 -58.48451927 89.12198191 -51.21203613 78.0368042 C-46.20183006 70.40004705 -41.18929711 62.76483106 -36.171875 55.1328125 C-35.68257004 54.3885199 -35.19326508 53.64422729 -34.68913269 52.87738037 C-33.70066509 51.37381877 -32.71219565 49.87025839 -31.72372437 48.36669922 C-31.23739532 47.62693848 -30.75106628 46.88717773 -30.25 46.125 C-29.76939117 45.39394043 -29.28878235 44.66288086 -28.79360962 43.90966797 C-20.31479299 31.01129261 -11.85977927 18.09752924 -3.42260742 5.171875 C-2.28988022 3.44255611 -1.14671635 1.72007452 0 0 Z " fill="#32FD98" transform="translate(300,50)"/>
<path d="M0 0 C0.78069351 0.35569061 1.56138702 0.71138123 2.36573792 1.07785034 C4.93345869 2.25018091 7.49383214 3.43775756 10.0546875 4.625 C11.86374501 5.45328467 13.67340613 6.28025215 15.48364258 7.10595703 C19.18859128 8.7963564 22.89152193 10.49106285 26.59326172 12.18847656 C33.52796749 15.36195702 40.4947299 18.46179493 47.46829224 21.54873657 C50.37441502 22.83520612 53.27926272 24.12454268 56.18418884 25.41371155 C57.68823848 26.0811367 59.19235902 26.74840208 60.69654846 27.41551208 C66.90112103 30.16736243 73.10317798 32.92484844 79.3046875 35.68359375 C98.82977289 44.36859689 118.35527778 53.0515597 137.9296875 61.625 C135.69221498 64.06377379 133.43870115 65.62349528 130.5546875 67.234375 C129.66604004 67.73380615 128.77739258 68.2332373 127.86181641 68.74780273 C126.4104126 69.55326538 126.4104126 69.55326538 124.9296875 70.375 C123.91438965 70.94355713 122.8990918 71.51211426 121.85302734 72.09790039 C118.54845333 73.94608098 115.23956607 75.78633805 111.9296875 77.625 C110.28468262 78.54031494 110.28468262 78.54031494 108.60644531 79.47412109 C102.97166951 82.60924084 97.33429188 85.73963577 91.6953125 88.8671875 C82.12176372 94.18004127 72.57244267 99.53605393 63.02246094 104.89111328 C58.86832016 107.22002928 54.71303136 109.54689218 50.55761719 111.87353516 C48.47740596 113.03833654 46.39732716 114.20337446 44.31738281 115.36865234 C39.03686376 118.32683588 33.75449764 121.28163667 28.46875 124.23046875 C27.40495117 124.824646 26.34115234 125.41882324 25.24511719 126.03100586 C23.13986468 127.20655128 21.03376177 128.38057521 18.92675781 129.55297852 C14.01268379 132.29670895 9.13352375 135.07981485 4.3125 137.984375 C3.44222168 138.50491455 2.57194336 139.0254541 1.67529297 139.56176758 C0.05981345 140.53323623 -1.54851954 141.51673194 -3.14794922 142.5144043 C-3.85967285 142.94148682 -4.57139648 143.36856934 -5.3046875 143.80859375 C-5.91538086 144.18556396 -6.52607422 144.56253418 -7.15527344 144.95092773 C-10.52374246 146.13659104 -13.16545153 145.05443061 -16.2890625 143.57202148 C-17.041875 143.13446533 -17.7946875 142.69690918 -18.5703125 142.24609375 C-19.87790527 141.49513428 -19.87790527 141.49513428 -21.21191406 140.72900391 C-22.15518555 140.17905762 -23.09845703 139.62911133 -24.0703125 139.0625 C-26.14759051 137.86961759 -28.22575777 136.67828273 -30.3046875 135.48828125 C-31.95500977 134.54202881 -31.95500977 134.54202881 -33.63867188 133.57666016 C-39.50044359 130.24292346 -45.41083479 126.9980717 -51.3203125 123.75 C-53.79191457 122.38977301 -56.26316303 121.02890429 -58.734375 119.66796875 C-59.34650848 119.3309494 -59.95864197 118.99393005 -60.58932495 118.646698 C-70.31819226 113.28821841 -80.02095649 107.88258739 -89.72753906 102.48388672 C-95.34077392 99.3624165 -100.9556478 96.24389733 -106.5703125 93.125 C-107.67624756 92.51052002 -108.78218262 91.89604004 -109.92163086 91.26293945 C-115.08541822 88.39383476 -120.24949147 85.52524893 -125.41471863 82.65873718 C-137.98610121 75.68203244 -150.55296833 68.69835375 -163.0703125 61.625 C-163.0703125 60.965 -163.0703125 60.305 -163.0703125 59.625 C-125.39900134 43.58942826 -87.70296855 27.61307079 -49.91674805 11.84985352 C-49.09039352 11.50465164 -48.264039 11.15944977 -47.41264343 10.80378723 C-45.78172728 10.12272172 -44.15031619 9.44284008 -42.51838684 8.76420593 C-38.11215446 6.92526528 -33.73076997 5.04070185 -29.3671875 3.10253906 C-27.94623779 2.47673447 -27.94623779 2.47673447 -26.49658203 1.83828735 C-24.67572264 1.0344011 -22.85872277 0.22169486 -21.04638672 -0.60122681 C-12.78814203 -4.23376956 -8.02404356 -3.77108837 0 0 Z " fill="#32FE98" transform="translate(312.0703125,246.375)"/>
<path d="M0 0 C3.63260345 1.36472823 6.90961407 2.9980116 10.26171875 4.94921875 C11.28475098 5.54226807 12.3077832 6.13531738 13.36181641 6.74633789 C14.45929199 7.38692139 15.55676758 8.02750488 16.6875 8.6875 C17.84794246 9.36159474 19.00859074 10.03533525 20.16943359 10.70874023 C22.58134125 12.10820931 24.99235586 13.50919971 27.40283203 14.91113281 C31.89393806 17.5213457 36.39592533 20.11259663 40.89770508 22.7043457 C51.27293996 28.67801336 61.62511777 34.6899802 71.96142578 40.73071289 C80.37690618 45.64538106 88.81777259 50.51529449 97.26269531 55.37915039 C103.73701937 59.11048741 110.20107671 62.85867106 116.65283203 66.62890625 C118.68871675 67.81776278 120.72611064 69.00403936 122.76513672 70.1875 C127.00785537 72.65152121 131.23454849 75.1272494 135.3984375 77.72265625 C136.36185059 78.3105896 136.36185059 78.3105896 137.34472656 78.91040039 C138.97030939 79.90532307 140.58351972 80.92038904 142.1953125 81.9375 C144.9335083 83.24019662 144.9335083 83.24019662 147.70703125 82.5703125 C152.49933781 80.28501329 157.01156218 77.60436822 161.5625 74.875 C170.7884913 69.41239205 180.09388685 64.14334637 189.5 59 C199.48846822 53.53185926 209.37685872 47.91835975 219.19238281 42.14404297 C226.16404171 38.04996356 233.18763514 34.06038906 240.25 30.125 C249.46731765 24.98871009 258.65238414 19.79987964 267.8125 14.5625 C268.95041992 13.9123291 270.08833984 13.2621582 271.26074219 12.59228516 C272.35676758 11.96499512 273.45279297 11.33770508 274.58203125 10.69140625 C275.64244629 10.08570801 276.70286133 9.48000977 277.79541016 8.85595703 C280.01545505 7.57020499 282.22275802 6.26229436 284.41943359 4.93701172 C285.5017627 4.28619629 286.5840918 3.63538086 287.69921875 2.96484375 C288.67076904 2.37179443 289.64231934 1.77874512 290.64331055 1.16772461 C291.42101807 0.78237549 292.19872559 0.39702637 293 0 C293.66 0.33 294.32 0.66 295 1 C294.48783936 1.70793701 294.48783936 1.70793701 293.96533203 2.43017578 C287.89028119 10.82941692 281.82139126 19.2324948 275.80664062 27.67504883 C272.43455871 32.40338209 269.03083368 37.10844265 265.625 41.8125 C261.37757019 47.68131403 257.16760248 53.57424407 253 59.5 C247.282198 67.62792476 241.47175762 75.68666241 235.64111328 83.73388672 C232.92351837 87.48644785 230.21198061 91.24338045 227.5 95 C224.24130943 99.51391895 220.9813334 104.02687665 217.71484375 108.53515625 C212.43419578 115.82747964 207.1804866 123.1361012 202 130.5 C196.28208009 138.62784334 190.47175905 146.68666044 184.64111328 154.73388672 C181.3836946 159.23185759 178.13439596 163.73569861 174.8840332 168.23876953 C172.12966632 172.05391461 169.37230864 175.86683456 166.609375 179.67578125 C160.30017657 188.38019739 154.06802648 197.12531528 148 206 C143.86638989 202.12848473 140.69976967 197.97256723 137.5 193.3125 C136.43844867 191.78709978 135.37591564 190.26238237 134.3125 188.73828125 C133.76722656 187.95533691 133.22195313 187.17239258 132.66015625 186.36572266 C129.98080073 182.54764104 127.24028358 178.77446923 124.5 175 C120.29256151 169.19476047 116.12404102 163.36477391 112 157.5 C105.74567124 148.60923428 99.3788447 139.80166999 93 131 C86.11674383 121.50233199 79.26615918 111.98567967 72.51708984 102.39208984 C66.75185476 94.20813928 60.87446007 86.105709 55 78 C48.11674383 68.50233199 41.26615918 58.98567967 34.51708984 49.39208984 C30.89979645 44.25721679 27.2428278 39.15236194 23.5625 34.0625 C23.02890869 33.32410889 22.49531738 32.58571777 21.94555664 31.82495117 C19.11593904 27.91313342 16.2771681 24.00820923 13.4296875 20.109375 C12.84501709 19.3062085 12.26034668 18.50304199 11.65795898 17.67553711 C10.54588983 16.14811872 9.43100803 14.62274242 8.31274414 13.09985352 C5.23418341 8.86603704 2.51101522 4.59449547 0 0 Z " fill="#32FD98" transform="translate(155,344)"/>
</svg>
