<?xml version="1.0" encoding="UTF-8"?>
<svg version="1.1" xmlns="http://www.w3.org/2000/svg" width="200" height="200">
<path d="M0 0 C18.94117633 15.97740763 32.74939967 38.83762192 35.4375 63.75 C37.58547278 94.94025688 31.236838 120.91505546 10.87109375 145.05859375 C-5.70446543 163.39015117 -28.90857263 176.25876359 -53.80273438 177.97314453 C-85.17396919 179.3716107 -110.9524728 172.09839905 -134.5625 150.75 C-153.68923272 132.14098335 -164.3546023 108.02583084 -165.03320312 81.41601562 C-165.27144065 51.60455952 -156.06340132 26.76560955 -135.03515625 5.15234375 C-97.49103665 -30.51732641 -40.30425919 -31.63546601 0 0 Z " fill="#010101" transform="translate(164.5625,22.25)"/>
<path d="M0 0 C1.52935181 0.82975342 1.52935181 0.82975342 3.08959961 1.67626953 C4.23589844 2.29429443 5.38219727 2.91231934 6.56323242 3.54907227 C7.78957074 4.21889002 9.01580577 4.8888969 10.24194336 5.55908203 C11.49524709 6.23806037 12.74882995 6.91652373 14.00268555 7.59448242 C17.73351755 9.61478628 21.45730665 11.64781291 25.17944336 13.68408203 C26.25758301 14.27334473 27.33572266 14.86260742 28.4465332 15.46972656 C34.03243593 18.52633397 39.60991639 21.59774278 45.17944336 24.68408203 C42.40100056 28.00886973 38.68250247 29.71119158 34.90600586 31.66845703 C34.18641693 32.04713928 33.466828 32.42582153 32.72543335 32.815979 C30.42113574 34.02724147 28.1129485 35.23086117 25.80444336 36.43408203 C23.53991793 37.62083867 21.2762167 38.80914994 19.01287842 39.99816895 C17.5293949 40.77603732 16.04457588 41.55136422 14.55841064 42.32409668 C11.12310461 44.1140038 7.71451233 45.93028944 4.35424805 47.85791016 C3.21117187 48.50695312 2.0680957 49.15599609 0.89038086 49.82470703 C-0.09913574 50.4025293 -1.08865234 50.98035156 -2.1081543 51.57568359 C-5.31563135 52.88638979 -6.57355877 52.78270968 -9.82055664 51.68408203 C-11.56426605 50.91569083 -13.27979136 50.08149017 -14.96899414 49.19970703 C-16.46184937 48.42373169 -16.46184937 48.42373169 -17.98486328 47.63208008 C-19.57415649 46.79157104 -19.57415649 46.79157104 -21.19555664 45.93408203 C-22.28795654 45.36149658 -23.38035645 44.78891113 -24.50585938 44.19897461 C-35.74622517 38.2681527 -46.80706901 32.02432559 -57.82055664 25.68408203 C-55.44647049 23.02610064 -52.9994187 21.57670589 -49.83227539 19.96923828 C-48.82583984 19.45312988 -47.8194043 18.93702148 -46.7824707 18.40527344 C-45.70191406 17.85790527 -44.62135742 17.31053711 -43.50805664 16.74658203 C-36.76413848 13.30398546 -30.04398706 9.84825345 -23.44946289 6.12548828 C-22.45793213 5.56788818 -21.46640137 5.01028809 -20.44482422 4.43579102 C-18.56175894 3.37005892 -16.68498302 2.29311867 -14.81542969 1.20385742 C-13.96634033 0.72553467 -13.11725098 0.24721191 -12.24243164 -0.24560547 C-11.50605469 -0.67083496 -10.76967773 -1.09606445 -10.01098633 -1.53417969 C-6.18314196 -2.90029178 -3.56979264 -1.66547064 0 0 Z " fill="#E8E8E8" transform="translate(106.820556640625,74.31591796875)"/>
<path d="M0 0 C0 3.30373257 -0.41857172 3.99952725 -2.19628906 6.65087891 C-2.67809631 7.37659088 -3.15990356 8.10230286 -3.65631104 8.8500061 C-4.18738464 9.63426971 -4.71845825 10.41853333 -5.265625 11.2265625 C-5.81426208 12.04764496 -6.36289917 12.86872742 -6.92816162 13.71469116 C-8.09862492 15.46364767 -9.27241422 17.21038208 -10.44921875 18.95507812 C-12.20741264 21.561858 -13.95623887 24.17469537 -15.703125 26.7890625 C-21.64671458 35.66269542 -27.68991399 44.45562391 -33.87512207 53.16249084 C-37.94140472 58.89203824 -41.87912926 64.69901057 -45.75 70.5625 C-46.36359375 71.48740234 -46.9771875 72.41230469 -47.609375 73.36523438 C-49.07515476 75.57535541 -50.53872238 77.78690092 -52 80 C-55.20895286 76.87394752 -57.61593687 73.7653095 -60.0625 70 C-60.9465413 68.65274234 -61.83209386 67.30647572 -62.71875 65.9609375 C-63.22664063 65.18975586 -63.73453125 64.41857422 -64.2578125 63.62402344 C-67.41620688 58.86695746 -70.62998918 54.14727941 -73.83953857 49.4246521 C-75.06772014 47.61731829 -76.29494113 45.80933544 -77.52197266 44.0012207 C-81.23065075 38.53784868 -84.94403519 33.07777606 -88.67158508 27.6272583 C-89.84811772 25.90679235 -91.02366893 24.18565977 -92.19897461 22.46435547 C-93.65324762 20.33552437 -95.10967032 18.20815962 -96.56860352 16.08251953 C-99.93298271 11.15503102 -103.14284129 6.23934219 -106 1 C-102.12747298 2.4750779 -98.48249888 4.22518621 -94.80078125 6.125 C-94.21229904 6.42849365 -93.62381683 6.7319873 -93.01750183 7.04467773 C-91.76251565 7.69281696 -90.50816172 8.34218166 -89.25439453 8.99267578 C-87.29870026 10.00715838 -85.34079616 11.01728822 -83.3828125 12.02734375 C-77.62078221 15.00932247 -71.88913414 18.01863654 -66.26171875 21.25 C-65.4421167 21.72050781 -64.62251465 22.19101563 -63.77807617 22.67578125 C-62.30031974 23.5347836 -60.82985065 24.40649536 -59.3684082 25.29296875 C-55.7063366 27.48332453 -55.7063366 27.48332453 -51.5612793 27.73706055 C-48.9917281 26.99761959 -46.94321236 26.07296584 -44.61328125 24.76953125 C-43.76918701 24.30264893 -42.92509277 23.8357666 -42.05541992 23.35473633 C-41.15025635 22.84579834 -40.24509277 22.33686035 -39.3125 21.8125 C-37.35728719 20.72823501 -35.40153328 19.64494535 -33.4453125 18.5625 C-32.40922852 17.98757812 -31.37314453 17.41265625 -30.30566406 16.8203125 C-26.81712168 14.89929536 -23.3145892 13.00659467 -19.8046875 11.125 C-19.2098204 10.80601242 -18.61495331 10.48702484 -18.00205994 10.15837097 C-15.07504617 8.58979007 -12.14680096 7.02352602 -9.21801758 5.45825195 C-8.15993896 4.89066162 -7.10186035 4.32307129 -6.01171875 3.73828125 C-5.06772217 3.23337158 -4.12372559 2.72846191 -3.15112305 2.20825195 C-1.08526143 1.17533703 -1.08526143 1.17533703 0 0 Z " fill="#FBFBFB" transform="translate(153,107)"/>
<path d="M0 0 C3.08886204 2.90352178 5.4201037 5.90219117 7.74609375 9.44140625 C8.2859063 10.25721664 8.2859063 10.25721664 8.83662415 11.08950806 C10.04109738 12.91111591 11.23925936 14.73678754 12.4375 16.5625 C14.20941348 19.24926849 15.9850787 21.93354261 17.76171875 24.6171875 C18.48000351 25.70313454 18.48000351 25.70313454 19.21279907 26.8110199 C23.35169788 33.05437924 27.55506053 39.25279117 31.76953125 45.4453125 C33.10301195 47.40807691 34.43642672 49.37088613 35.76977539 51.33374023 C37.75796033 54.26017386 39.74830097 57.18501582 41.74557495 60.10525513 C43.62303753 62.85116831 45.49197607 65.60270568 47.359375 68.35546875 C47.93029373 69.18543365 48.50121246 70.01539856 49.08943176 70.87051392 C49.60615952 71.63536102 50.12288727 72.40020813 50.65527344 73.18823242 C51.11013123 73.85497482 51.56498901 74.52171722 52.03363037 75.20866394 C53 77 53 77 53 80 C52.46971191 79.7097998 51.93942383 79.41959961 51.39306641 79.12060547 C42.22750261 74.10718074 33.05932484 69.09910206 23.85546875 64.15625 C23.2665686 63.83987579 22.67766846 63.52350159 22.07092285 63.19754028 C19.18012084 61.64496735 16.28822675 60.09447373 13.39501953 58.54638672 C11.81696533 57.69971436 11.81696533 57.69971436 10.20703125 56.8359375 C9.2735083 56.33626465 8.33998535 55.8365918 7.37817383 55.32177734 C5 54 5 54 2 52 C-1.95831614 52.34339678 -4.94866749 53.84911401 -8.40234375 55.73828125 C-9.44777344 56.30603271 -10.49320313 56.87378418 -11.5703125 57.45874023 C-12.68148437 58.07048096 -13.79265625 58.68222168 -14.9375 59.3125 C-16.08089844 59.93390869 -17.22429687 60.55531738 -18.40234375 61.19555664 C-24.13096561 64.30965086 -29.83777874 67.46190143 -35.53515625 70.6328125 C-36.54263916 71.19057373 -37.55012207 71.74833496 -38.58813477 72.32299805 C-40.50295184 73.38468039 -42.41374363 74.45366113 -44.32006836 75.53051758 C-45.1735083 76.00384521 -46.02694824 76.47717285 -46.90625 76.96484375 C-47.65197266 77.3837085 -48.39769531 77.80257324 -49.16601562 78.23413086 C-49.77123047 78.48686768 -50.37644531 78.73960449 -51 79 C-51.66 78.67 -52.32 78.34 -53 78 C-13.94093249 20.32322654 -13.94093249 20.32322654 0 0 Z " fill="#FBFBFB" transform="translate(100,12)"/>
<path d="M0 0 C0 3.30373257 -0.41857172 3.99952725 -2.19628906 6.65087891 C-2.67809631 7.37659088 -3.15990356 8.10230286 -3.65631104 8.8500061 C-4.18738464 9.63426971 -4.71845825 10.41853333 -5.265625 11.2265625 C-5.81426208 12.04764496 -6.36289917 12.86872742 -6.92816162 13.71469116 C-8.09862492 15.46364767 -9.27241422 17.21038208 -10.44921875 18.95507812 C-12.20741264 21.561858 -13.95623887 24.17469537 -15.703125 26.7890625 C-21.64671458 35.66269542 -27.68991399 44.45562391 -33.87512207 53.16249084 C-37.94140472 58.89203824 -41.87912926 64.69901057 -45.75 70.5625 C-46.36359375 71.48740234 -46.9771875 72.41230469 -47.609375 73.36523438 C-49.07515476 75.57535541 -50.53872238 77.78690092 -52 80 C-52.66 79.34 -53.32 78.68 -54 78 C-53.34 78 -52.68 78 -52 78 C-52.33 61.83 -52.66 45.66 -53 29 C-49.24625 26.97875 -45.4925 24.9575 -41.625 22.875 C-40.37162842 22.19977295 -39.11825684 21.5245459 -37.8269043 20.82885742 C-32.34215099 17.87422377 -26.85643216 14.92146659 -21.36566162 11.97802734 C-19.55060873 11.00494249 -17.73593968 10.03114564 -15.92138672 9.05712891 C-13.62039537 7.82230117 -11.31865117 6.58887516 -9.01611328 5.35693359 C-7.97825684 4.7995752 -6.94040039 4.2422168 -5.87109375 3.66796875 C-4.95255615 3.17578857 -4.03401855 2.6836084 -3.08764648 2.17651367 C-1.07707228 1.16669059 -1.07707228 1.16669059 0 0 Z " fill="#D3D3D3" transform="translate(153,107)"/>
<path d="M0 0 C3.08886204 2.90352178 5.4201037 5.90219117 7.74609375 9.44140625 C8.2859063 10.25721664 8.2859063 10.25721664 8.83662415 11.08950806 C10.04109738 12.91111591 11.23925936 14.73678754 12.4375 16.5625 C14.20941348 19.24926849 15.9850787 21.93354261 17.76171875 24.6171875 C18.24057526 25.34115219 18.71943176 26.06511688 19.21279907 26.8110199 C23.35169788 33.05437924 27.55506053 39.25279117 31.76953125 45.4453125 C33.10301195 47.40807691 34.43642672 49.37088613 35.76977539 51.33374023 C37.75796033 54.26017386 39.74830097 57.18501582 41.74557495 60.10525513 C43.62303753 62.85116831 45.49197607 65.60270568 47.359375 68.35546875 C48.2157531 69.60041611 48.2157531 69.60041611 49.08943176 70.87051392 C49.60615952 71.63536102 50.12288727 72.40020813 50.65527344 73.18823242 C51.11013123 73.85497482 51.56498901 74.52171722 52.03363037 75.20866394 C53 77 53 77 53 80 C52.46971191 79.7097998 51.93942383 79.41959961 51.39306641 79.12060547 C48.80418857 77.70452846 46.21461877 76.28972157 43.625 74.875 C42.65506104 74.34455078 41.68512207 73.81410156 40.68579102 73.26757812 C35.11392487 70.22572871 29.52975062 67.20883729 23.92578125 64.2265625 C22.76159668 63.60539551 21.59741211 62.98422852 20.39794922 62.34423828 C18.12450391 61.13261095 15.84884734 59.92512192 13.57080078 58.72216797 C12.52520996 58.16416504 11.47961914 57.60616211 10.40234375 57.03125 C9.47929443 56.54205078 8.55624512 56.05285156 7.60522461 55.54882812 C6.74550049 55.03771484 5.88577637 54.52660156 5 54 C4.06913574 53.50209961 3.13827148 53.00419922 2.17919922 52.49121094 C-1.34363076 48.4639919 -0.50814277 44.26040017 -0.26953125 39.109375 C-0.24026047 38.04962463 -0.21098969 36.98987427 -0.18083191 35.89801025 C-0.08188383 32.51410123 0.0523577 29.13263814 0.1875 25.75 C0.26079136 23.45580235 0.33178304 21.16152999 0.40039062 18.8671875 C0.57358728 13.24365255 0.77577149 7.62171885 1 2 C0.34 1.67 -0.32 1.34 -1 1 C-0.67 0.67 -0.34 0.34 0 0 Z " fill="#D3D3D3" transform="translate(100,12)"/>
<path d="M0 0 C0 10.23 0 20.46 0 31 C-4.46173556 30.73451256 -8.92341841 30.46831574 -13.38500977 30.20043945 C-14.89670493 30.10987559 -16.40842305 30.01969396 -17.92016602 29.92993164 C-22.2644369 29.67184187 -26.60802312 29.40505065 -30.95111084 29.12774658 C-32.92610235 29.00460746 -34.90177039 28.8924701 -36.87744141 28.78076172 C-38.61840088 28.67078857 -38.61840088 28.67078857 -40.39453125 28.55859375 C-41.4100708 28.49857178 -42.42561035 28.4385498 -43.47192383 28.37670898 C-46 28 -46 28 -49 26 C-45.62399941 22.15467538 -41.89481656 20.11466758 -37.41796875 17.8125 C-36.68556473 17.42811768 -35.95316071 17.04373535 -35.19856262 16.64770508 C-32.86513119 15.42478631 -30.52657409 14.21208539 -28.1875 13 C-25.86029374 11.78580543 -23.53419559 10.56951858 -21.20857239 9.35229492 C-19.76498288 8.59762369 -18.32029552 7.8450473 -16.87431335 7.0949707 C-16.20704727 6.74781006 -15.53978119 6.40064941 -14.85229492 6.04296875 C-14.20884125 5.7082959 -13.56538757 5.37362305 -12.9024353 5.02880859 C-10.97979709 3.98907457 -9.12085272 2.86995703 -7.2512207 1.73828125 C-4 0 -4 0 0 0 Z " fill="#FBFBFB" transform="translate(101,73)"/>
<path d="M0 0 C4.14294499 0.60860038 7.23973218 2.00079029 10.91015625 3.9921875 C12.62960449 4.91922485 12.62960449 4.91922485 14.38378906 5.86499023 C15.61012738 6.53480799 16.83636241 7.20481487 18.0625 7.875 C19.31580374 8.55397834 20.56938659 9.2324417 21.82324219 9.91040039 C25.55407419 11.93070425 29.27786329 13.96373088 33 16 C34.07813965 16.5892627 35.1562793 17.17852539 36.26708984 17.78564453 C41.85299257 20.84225194 47.43047303 23.91366075 53 27 C53 27.33 53 27.66 53 28 C36.0078975 29.67292812 19.06511658 31.28895348 2 32 C2 21.77 2 11.54 2 1 C1.34 0.67 0.68 0.34 0 0 Z " fill="#E9E9E9" transform="translate(99,72)"/>
<path d="M0 0 C-3.38661103 2.72994789 -7.06435608 4.74773859 -10.8984375 6.765625 C-11.90555283 7.30035431 -11.90555283 7.30035431 -12.93301392 7.84588623 C-14.35601522 8.60053651 -15.77989513 9.35353205 -17.20458984 10.10498047 C-19.33505606 11.22892721 -21.46267254 12.35811326 -23.58984375 13.48828125 C-32.33144591 18.12207089 -41.13443788 22.60788665 -50 27 C-50 19.41 -50 11.82 -50 4 C-13.27793696 -0.10028653 -13.27793696 -0.10028653 0 0 Z " fill="#D4D4D4" transform="translate(151,100)"/>
</svg>
